%TF.GenerationSoftware,KiCad,Pcbnew,(6.0.10)*%
%TF.CreationDate,2023-02-17T09:15:48-08:00*%
%TF.ProjectId,Exercise II,45786572-6369-4736-9520-49492e6b6963,rev?*%
%TF.SameCoordinates,Original*%
%TF.FileFunction,Copper,L1,Top*%
%TF.FilePolarity,Positive*%
%FSLAX46Y46*%
G04 Gerber Fmt 4.6, Leading zero omitted, Abs format (unit mm)*
G04 Created by KiCad (PCBNEW (6.0.10)) date 2023-02-17 09:15:48*
%MOMM*%
%LPD*%
G01*
G04 APERTURE LIST*
G04 Aperture macros list*
%AMRoundRect*
0 Rectangle with rounded corners*
0 $1 Rounding radius*
0 $2 $3 $4 $5 $6 $7 $8 $9 X,Y pos of 4 corners*
0 Add a 4 corners polygon primitive as box body*
4,1,4,$2,$3,$4,$5,$6,$7,$8,$9,$2,$3,0*
0 Add four circle primitives for the rounded corners*
1,1,$1+$1,$2,$3*
1,1,$1+$1,$4,$5*
1,1,$1+$1,$6,$7*
1,1,$1+$1,$8,$9*
0 Add four rect primitives between the rounded corners*
20,1,$1+$1,$2,$3,$4,$5,0*
20,1,$1+$1,$4,$5,$6,$7,0*
20,1,$1+$1,$6,$7,$8,$9,0*
20,1,$1+$1,$8,$9,$2,$3,0*%
G04 Aperture macros list end*
%TA.AperFunction,SMDPad,CuDef*%
%ADD10RoundRect,0.250001X0.624999X-0.462499X0.624999X0.462499X-0.624999X0.462499X-0.624999X-0.462499X0*%
%TD*%
%TA.AperFunction,SMDPad,CuDef*%
%ADD11RoundRect,0.250000X-0.450000X0.350000X-0.450000X-0.350000X0.450000X-0.350000X0.450000X0.350000X0*%
%TD*%
%TA.AperFunction,SMDPad,CuDef*%
%ADD12RoundRect,0.150000X-0.825000X-0.150000X0.825000X-0.150000X0.825000X0.150000X-0.825000X0.150000X0*%
%TD*%
%TA.AperFunction,SMDPad,CuDef*%
%ADD13R,2.290000X3.000000*%
%TD*%
%TA.AperFunction,SMDPad,CuDef*%
%ADD14RoundRect,0.250000X0.350000X0.450000X-0.350000X0.450000X-0.350000X-0.450000X0.350000X-0.450000X0*%
%TD*%
%TA.AperFunction,ComponentPad*%
%ADD15R,3.000000X3.000000*%
%TD*%
%TA.AperFunction,ComponentPad*%
%ADD16C,3.000000*%
%TD*%
%TA.AperFunction,SMDPad,CuDef*%
%ADD17RoundRect,0.250000X0.337500X0.475000X-0.337500X0.475000X-0.337500X-0.475000X0.337500X-0.475000X0*%
%TD*%
%TA.AperFunction,SMDPad,CuDef*%
%ADD18RoundRect,0.250000X-0.537500X-0.425000X0.537500X-0.425000X0.537500X0.425000X-0.537500X0.425000X0*%
%TD*%
%TA.AperFunction,SMDPad,CuDef*%
%ADD19RoundRect,0.250000X0.450000X-0.350000X0.450000X0.350000X-0.450000X0.350000X-0.450000X-0.350000X0*%
%TD*%
%TA.AperFunction,ViaPad*%
%ADD20C,0.800000*%
%TD*%
%TA.AperFunction,Conductor*%
%ADD21C,0.254000*%
%TD*%
G04 APERTURE END LIST*
D10*
%TO.P,D2,1,K*%
%TO.N,GND*%
X152654000Y-107786500D03*
%TO.P,D2,2,A*%
%TO.N,Net-(D2-Pad2)*%
X152654000Y-104811500D03*
%TD*%
D11*
%TO.P,R4,1*%
%TO.N,/pin_3*%
X152654000Y-97171000D03*
%TO.P,R4,2*%
%TO.N,Net-(D2-Pad2)*%
X152654000Y-99171000D03*
%TD*%
D12*
%TO.P,U1,1,GND*%
%TO.N,GND*%
X131699000Y-83427000D03*
%TO.P,U1,2,TR*%
%TO.N,/pin_2*%
X131699000Y-84697000D03*
%TO.P,U1,3,Q*%
%TO.N,/pin_3*%
X131699000Y-85967000D03*
%TO.P,U1,4,R*%
%TO.N,+9V*%
X131699000Y-87237000D03*
%TO.P,U1,5,CV*%
%TO.N,Net-(C2-Pad1)*%
X136649000Y-87237000D03*
%TO.P,U1,6,THR*%
%TO.N,/pin_2*%
X136649000Y-85967000D03*
%TO.P,U1,7,DIS*%
%TO.N,/pin_7*%
X136649000Y-84697000D03*
%TO.P,U1,8,VCC*%
%TO.N,+9V*%
X136649000Y-83427000D03*
D13*
%TO.P,U1,9*%
%TO.N,N/C*%
X134174000Y-85332000D03*
%TD*%
D10*
%TO.P,D1,1,K*%
%TO.N,Net-(D1-Pad1)*%
X152654000Y-83783500D03*
%TO.P,D1,2,A*%
%TO.N,+9V*%
X152654000Y-80808500D03*
%TD*%
D14*
%TO.P,R3,1*%
%TO.N,Net-(D1-Pad1)*%
X153654000Y-90678000D03*
%TO.P,R3,2*%
%TO.N,/pin_3*%
X151654000Y-90678000D03*
%TD*%
D15*
%TO.P,J1,1,Pin_1*%
%TO.N,+9V*%
X131953000Y-66548000D03*
D16*
%TO.P,J1,2,Pin_2*%
%TO.N,GND*%
X137033000Y-66548000D03*
%TD*%
D17*
%TO.P,C2,1*%
%TO.N,Net-(C2-Pad1)*%
X130323500Y-99187000D03*
%TO.P,C2,2*%
%TO.N,GND*%
X128248500Y-99187000D03*
%TD*%
D18*
%TO.P,C1,1*%
%TO.N,/pin_2*%
X115910500Y-103505000D03*
%TO.P,C1,2*%
%TO.N,GND*%
X118785500Y-103505000D03*
%TD*%
D19*
%TO.P,R1,1*%
%TO.N,+9V*%
X115951000Y-82280000D03*
%TO.P,R1,2*%
%TO.N,/pin_7*%
X115951000Y-80280000D03*
%TD*%
%TO.P,R2,1*%
%TO.N,/pin_7*%
X115824000Y-93837000D03*
%TO.P,R2,2*%
%TO.N,/pin_2*%
X115824000Y-91837000D03*
%TD*%
D20*
%TO.N,/pin_2*%
X119888000Y-97155000D03*
X132588000Y-89662000D03*
X120078500Y-92646500D03*
X129159000Y-91313000D03*
X140589000Y-86106000D03*
%TO.N,GND*%
X125857000Y-77597000D03*
X129413000Y-83312000D03*
X128905000Y-85217000D03*
X131191000Y-73279000D03*
%TO.N,+9V*%
X129794000Y-87376000D03*
X138176000Y-82169000D03*
X122555000Y-86106000D03*
X122682000Y-88011000D03*
X139446000Y-82677000D03*
%TO.N,/pin_7*%
X139573000Y-80264000D03*
X140589000Y-84709000D03*
%TO.N,/pin_3*%
X129413000Y-88773000D03*
X135509000Y-89916000D03*
%TD*%
D21*
%TO.N,/pin_2*%
X115824000Y-91837000D02*
X117808500Y-89852500D01*
X119888000Y-97155000D02*
X116014500Y-101028500D01*
X132588000Y-89662000D02*
X130810000Y-89662000D01*
X122745500Y-89852500D02*
X128544000Y-84054000D01*
X130810000Y-89662000D02*
X129159000Y-91313000D01*
X136649000Y-85967000D02*
X140450000Y-85967000D01*
X131056000Y-84054000D02*
X131699000Y-84697000D01*
X116014500Y-103401000D02*
X115910500Y-103505000D01*
X128544000Y-84054000D02*
X131056000Y-84054000D01*
X117808500Y-89852500D02*
X122745500Y-89852500D01*
X116014500Y-101028500D02*
X116014500Y-103401000D01*
X120015000Y-92583000D02*
X122745500Y-89852500D01*
X140450000Y-85967000D02*
X140589000Y-86106000D01*
%TO.N,GND*%
X130302000Y-74168000D02*
X127127000Y-74168000D01*
X125857000Y-75438000D02*
X125857000Y-77597000D01*
X131191000Y-73279000D02*
X130302000Y-74168000D01*
X128248500Y-99187000D02*
X128248500Y-103991500D01*
X129413000Y-83312000D02*
X131584000Y-83312000D01*
X127127000Y-74168000D02*
X125857000Y-75438000D01*
X128248500Y-103991500D02*
X130048000Y-105791000D01*
X128248500Y-99187000D02*
X128248500Y-85873500D01*
X128248500Y-85873500D02*
X128905000Y-85217000D01*
X123930500Y-103505000D02*
X128248500Y-99187000D01*
X152654000Y-107786500D02*
X150658500Y-105791000D01*
X118785500Y-103505000D02*
X123930500Y-103505000D01*
X150658500Y-105791000D02*
X130048000Y-105791000D01*
%TO.N,Net-(C2-Pad1)*%
X136283000Y-87237000D02*
X136649000Y-87237000D01*
X130323500Y-93196500D02*
X136283000Y-87237000D01*
X130323500Y-99187000D02*
X130323500Y-93196500D01*
%TO.N,Net-(D1-Pad1)*%
X153654000Y-90678000D02*
X153654000Y-84783500D01*
X153654000Y-84783500D02*
X152654000Y-83783500D01*
%TO.N,+9V*%
X124841000Y-84963000D02*
X127997000Y-81807000D01*
X124841000Y-85852000D02*
X124841000Y-84963000D01*
X136461500Y-70929500D02*
X136461500Y-75955500D01*
X141314500Y-80808500D02*
X139446000Y-82677000D01*
X118729000Y-82280000D02*
X122555000Y-86106000D01*
X137052000Y-81807000D02*
X137477500Y-82232500D01*
X136334500Y-70929500D02*
X131953000Y-66548000D01*
X136649000Y-83061000D02*
X136649000Y-83427000D01*
X136461500Y-75955500D02*
X141314500Y-80808500D01*
X138176000Y-82169000D02*
X137541000Y-82169000D01*
X122682000Y-88011000D02*
X124841000Y-85852000D01*
X152654000Y-80808500D02*
X141314500Y-80808500D01*
X137477500Y-82232500D02*
X137541000Y-82169000D01*
X136461500Y-70929500D02*
X136334500Y-70929500D01*
X137477500Y-82232500D02*
X136649000Y-83061000D01*
X131560000Y-87376000D02*
X131699000Y-87237000D01*
X129794000Y-87376000D02*
X131560000Y-87376000D01*
X127997000Y-81807000D02*
X137052000Y-81807000D01*
X115951000Y-82280000D02*
X118729000Y-82280000D01*
%TO.N,Net-(D2-Pad2)*%
X152654000Y-104811500D02*
X152654000Y-99171000D01*
%TO.N,/pin_7*%
X138811000Y-84709000D02*
X138684000Y-84582000D01*
X115951000Y-80280000D02*
X114797000Y-81434000D01*
X138569000Y-84697000D02*
X136649000Y-84697000D01*
X138684000Y-84582000D02*
X138569000Y-84697000D01*
X114797000Y-92810000D02*
X115824000Y-93837000D01*
X135563000Y-81353000D02*
X136144000Y-80772000D01*
X115951000Y-80280000D02*
X134490000Y-80280000D01*
X140589000Y-84709000D02*
X138811000Y-84709000D01*
X114797000Y-81434000D02*
X114797000Y-92810000D01*
X136144000Y-78232000D02*
X137541000Y-78232000D01*
X134490000Y-80280000D02*
X135563000Y-81353000D01*
X136144000Y-80772000D02*
X136144000Y-78232000D01*
X137541000Y-78232000D02*
X139573000Y-80264000D01*
%TO.N,/pin_3*%
X129298000Y-85967000D02*
X131699000Y-85967000D01*
X128778000Y-88138000D02*
X128778000Y-86487000D01*
X136271000Y-90678000D02*
X135509000Y-89916000D01*
X152654000Y-97171000D02*
X152654000Y-91678000D01*
X128778000Y-86487000D02*
X129298000Y-85967000D01*
X151654000Y-90678000D02*
X136271000Y-90678000D01*
X129413000Y-88773000D02*
X128778000Y-88138000D01*
X152654000Y-91678000D02*
X151654000Y-90678000D01*
%TD*%
M02*
